<?xml version="1.0" encoding="utf-8"?>
<!-- Generator: Adobe Illustrator 24.0.3, SVG Export Plug-In . SVG Version: 6.00 Build 0)  -->
<svg version="1.1" id="Layer_1" xmlns="http://www.w3.org/2000/svg" xmlns:xlink="http://www.w3.org/1999/xlink" x="0px" y="0px"
	 viewBox="0 0 354.33 208.92" style="enable-background:new 0 0 354.33 208.92;" xml:space="preserve">
<style type="text/css">
	.st0{fill:url(#SVGID_1_);}
	.st1{fill:#3DA2DB;}
	.st2{fill:#FFFFFF;}
</style>
<g>
	<g>
		<linearGradient id="SVGID_1_" gradientUnits="userSpaceOnUse" x1="232.9452" y1="56.5076" x2="232.9452" y2="0.2567">
			<stop  offset="0" style="stop-color:#3DA2DB"/>
			<stop  offset="1" style="stop-color:#007199"/>
		</linearGradient>
		<path class="st0" d="M162.39,11.24c11.24,11.23,67.44,78.67,67.44,78.67h78.67c0,0-44.92-52.45-44.92-52.45V21.74h-13.82
			c0,0-7.66-9.32-8.69-10.5C236.69,6.16,229.82,0,218.58,0c-11.24,0-56.2,0-56.2,0S151.15,0,162.39,11.24z"/>
		<path class="st1" d="M50,89.91h78.67c0,0,64.16-74.85,67.43-78.67C199.39,7.41,207.34,0,218.58,0c-11.24,0-70.62,0-78.67,0
			c-11.24,0-11.24,0-22.48,11.24C106.19,22.48,50,89.91,50,89.91z"/>
	</g>
	<g>
		<path class="st2" d="M56.65,113.81L33.8,164.84H22.91L0,113.81h12.28l16.04,35.78l16.04-35.78h4.56H56.65z"/>
		<path class="st2" d="M74.93,125.03v7.59H95.6v11.22H74.93v9.77h21.39v11.22H63.71v-51.03h32.61v11.22H74.93z"/>
		<path class="st2" d="M157.13,113.81v51.03H146.7h-1.65l-26.21-34.13v34.13h-3.63h-7.59v-51.03h12.41l25.88,33.74v-33.74h5.74
			H157.13z"/>
		<path class="st2" d="M207.3,125.03h-15.19v39.81h-11.22v-39.81h-15.12v-11.22h41.53V125.03z"/>
		<path class="st2" d="M239.06,166.16c-5.37,0-9.95-1.1-13.73-3.3c-3.39-1.98-5.96-4.67-7.72-8.05c-0.75-1.41-1.33-2.83-1.75-4.26
			c-0.42-1.43-0.73-2.77-0.92-4.03c-0.2-1.25-0.31-2.39-0.33-3.4c-0.02-1.01-0.03-1.8-0.03-2.38v-26.94h11.22v26.94
			c0,5.02,1.05,8.64,3.14,10.86c2.09,2.22,5.47,3.33,10.13,3.33c4.66,0,8.04-1.11,10.13-3.33c2.09-2.22,3.14-5.84,3.14-10.86v-26.94
			h11.22v26.94c0,0.57-0.01,1.37-0.03,2.38c-0.02,1.01-0.13,2.15-0.33,3.4c-0.2,1.25-0.51,2.6-0.92,4.03
			c-0.42,1.43-1,2.85-1.75,4.26c-1.76,3.39-4.34,6.07-7.72,8.05C249.01,165.06,244.43,166.16,239.06,166.16z"/>
		<path class="st2" d="M314.06,164.84h-4.89h-8.85l-9.37-13.4h-5.81v13.4h-11.22v-51.03h18.82c2.9,0,5.56,0.36,7.95,1.09
			c2.4,0.73,4.52,1.79,6.37,3.2c1.01,0.84,1.92,1.75,2.74,2.74c0.81,0.99,1.49,2.06,2.01,3.2c1.14,2.42,1.72,5.04,1.72,7.86
			c0,2.69-0.49,5.24-1.45,7.66c-0.92,2.33-2.31,4.4-4.16,6.21c-1.45,1.45-3.06,2.6-4.82,3.43L314.06,164.84z M285.14,140.22h7.59
			h0.07c3.12,0.09,5.54-0.73,7.26-2.44c1.5-1.5,2.24-3.45,2.24-5.88c0-4.58-3.19-6.87-9.57-6.87h-7.59V140.22z"/>
		<path class="st2" d="M332.94,125.03v7.59h20.66v11.22h-20.66v9.77h21.39v11.22h-32.61v-51.03h32.61v11.22H332.94z"/>
		<path class="st2" d="M11.82,207.91H2.47v-31.43h9.35c2.25,0,4.36,0.39,6.34,1.16c1.98,0.77,3.71,1.89,5.2,3.35
			c1.46,1.46,2.59,3.14,3.37,5.04c0.79,1.9,1.18,3.9,1.18,6.02c0,2.17-0.38,4.21-1.14,6.12c-0.76,1.91-1.84,3.6-3.25,5.06
			c-0.71,0.73-1.49,1.38-2.36,1.95c-0.87,0.57-1.78,1.06-2.72,1.46c-1.03,0.41-2.09,0.72-3.19,0.94
			C14.16,207.8,13.01,207.91,11.82,207.91z M4.5,205.87h7.32c2.03,0,3.91-0.35,5.63-1.04c1.72-0.69,3.2-1.65,4.45-2.87
			c1.25-1.22,2.22-2.68,2.93-4.37c0.7-1.69,1.06-3.54,1.06-5.55c0-1.92-0.36-3.71-1.08-5.37c-0.72-1.65-1.71-3.08-2.97-4.29
			c-1.26-1.21-2.74-2.15-4.45-2.85c-1.71-0.69-3.56-1.04-5.57-1.04H4.5V205.87z"/>
		<path class="st2" d="M36.5,178.51v11.87h14.8v2.03H36.5v13.46h15.2v2.03H34.47v-31.43H51.7v2.03H36.5z"/>
		<path class="st2" d="M57.64,176.89l1.87-0.81l12.52,27.69l12.52-27.69l1.87,0.81l-14.39,31.79L57.64,176.89z"/>
		<path class="st2" d="M94.15,178.51v11.87h14.8v2.03h-14.8v13.46h15.21v2.03H92.11v-31.43h17.24v2.03H94.15z"/>
		<path class="st2" d="M116.91,207.91v-31.43h2.03v29.39h15.69v2.03H116.91z"/>
		<path class="st2" d="M155.37,208.64c-2.22,0-4.36-0.43-6.42-1.3c-1.98-0.81-3.71-1.99-5.2-3.54c-1.55-1.49-2.72-3.23-3.54-5.2
			c-0.87-2.06-1.3-4.2-1.3-6.42c0-2.22,0.43-4.36,1.3-6.42c0.81-1.98,1.99-3.71,3.54-5.2c1.49-1.55,3.23-2.72,5.2-3.54
			c2.06-0.87,4.2-1.3,6.42-1.3c2.22,0,4.36,0.43,6.42,1.3c1.98,0.81,3.71,1.99,5.2,3.54c1.55,1.49,2.72,3.23,3.54,5.2
			c0.87,2.06,1.3,4.2,1.3,6.42c0,2.22-0.43,4.36-1.3,6.42c-0.81,1.98-1.99,3.71-3.54,5.2c-1.49,1.55-3.23,2.72-5.2,3.54
			C159.74,208.2,157.59,208.64,155.37,208.64z M155.37,177.74c-2.01,0-3.88,0.38-5.63,1.14c-1.75,0.76-3.27,1.79-4.57,3.09
			c-1.3,1.3-2.33,2.83-3.09,4.59c-0.76,1.76-1.14,3.63-1.14,5.61c0,2.01,0.38,3.88,1.14,5.63c0.76,1.75,1.79,3.27,3.09,4.57
			c1.3,1.3,2.83,2.33,4.57,3.09c1.75,0.76,3.62,1.14,5.63,1.14c1.98,0,3.85-0.38,5.61-1.14c1.76-0.76,3.29-1.79,4.59-3.09
			c1.3-1.3,2.33-2.83,3.09-4.57c0.76-1.75,1.14-3.63,1.14-5.63c0-1.98-0.38-3.85-1.14-5.61c-0.76-1.76-1.79-3.29-3.09-4.59
			c-1.3-1.3-2.83-2.33-4.59-3.09C159.22,178.12,157.35,177.74,155.37,177.74z"/>
		<path class="st2" d="M179.6,207.91h-2.03v-31.43h8.66c3.28,0,5.94,0.77,7.97,2.32c2.28,1.71,3.41,4.12,3.41,7.24
			c0,3.06-0.99,5.56-2.97,7.48c-1.03,0.98-2.24,1.73-3.64,2.26c-1.4,0.53-2.91,0.79-4.53,0.79h-0.33h-6.55V207.91z M179.6,194.53
			h6.59c1.44,0.03,2.75-0.17,3.94-0.59c1.19-0.42,2.22-1.05,3.09-1.89c1.57-1.52,2.36-3.52,2.36-6.02c0-2.38-0.82-4.23-2.46-5.55
			c-1.64-1.31-3.94-1.97-6.89-1.97h-6.63V194.53z"/>
		<path class="st2" d="M206.64,182.41l-5.61,25.86l-1.95-0.45l6.91-31.99l12.07,27.77l12.03-27.81l6.95,32.08l-1.95,0.45
			l-5.65-25.94l-11.38,26.34L206.64,182.41z"/>
		<path class="st2" d="M245.38,178.51v11.87h14.8v2.03h-14.8v13.46h15.2v2.03h-17.24v-31.43h17.24v2.03H245.38z"/>
		<path class="st2" d="M270.18,181.03v26.87h-2.03v-32.16l25.25,27.89v-27.16h2.03v32.44L270.18,181.03z"/>
		<path class="st2" d="M324.66,178.51h-10.98v29.39h-2.03v-29.39h-10.94v-2.03h23.95V178.51z"/>
		<path class="st2" d="M341.08,208.43c-0.14,0-0.26-0.01-0.37-0.02c-0.11-0.01-0.22-0.02-0.33-0.02c-1.11-0.03-2.22-0.18-3.31-0.45
			c-1.1-0.27-2.15-0.68-3.15-1.22c-1.03-0.54-1.92-1.17-2.66-1.89c-0.75-0.72-1.34-1.47-1.77-2.26l1.83-0.94
			c0.65,1.27,1.84,2.37,3.58,3.29c0.84,0.46,1.73,0.81,2.68,1.06c0.95,0.24,1.9,0.37,2.85,0.37h0.04c0.81,0.06,1.78-0.03,2.91-0.24
			c1.12-0.22,2.21-0.61,3.25-1.18c1.04-0.57,1.95-1.32,2.72-2.26c0.77-0.93,1.21-2.09,1.32-3.48c0.13-1.65-0.3-3.02-1.3-4.11
			c-0.81-0.87-1.95-1.54-3.41-2.01c-1.46-0.47-3.13-0.71-5-0.71c-0.46,0-1.06-0.03-1.81-0.1c-0.75-0.07-1.54-0.2-2.38-0.41
			c-0.84-0.2-1.68-0.5-2.52-0.89c-0.84-0.39-1.59-0.93-2.24-1.61c-1.27-1.41-1.87-3.14-1.79-5.2c0.11-2.11,0.87-3.89,2.28-5.33
			c1.27-1.22,2.87-2.06,4.8-2.52c1.22-0.3,2.49-0.41,3.8-0.35c1.31,0.07,2.6,0.29,3.84,0.67c1.3,0.41,2.44,0.96,3.42,1.65
			c0.98,0.69,1.72,1.5,2.24,2.42l-1.79,1.02c-0.38-0.7-0.96-1.32-1.73-1.85c-0.77-0.53-1.69-0.96-2.74-1.28
			c-1.06-0.33-2.15-0.51-3.29-0.57s-2.22,0.04-3.25,0.28c-0.49,0.11-1.04,0.28-1.65,0.53c-0.61,0.24-1.19,0.6-1.75,1.06
			c-0.56,0.46-1.04,1.05-1.44,1.77c-0.41,0.72-0.64,1.59-0.69,2.62c-0.08,1.52,0.34,2.74,1.26,3.66c0.51,0.54,1.14,0.98,1.87,1.3
			c0.73,0.33,1.46,0.57,2.18,0.73c0.72,0.16,1.39,0.26,2.01,0.3c0.62,0.04,1.08,0.06,1.38,0.06c2.2,0,4.14,0.28,5.83,0.85
			c1.69,0.57,3.04,1.41,4.05,2.52c1.41,1.55,2.03,3.43,1.87,5.65c-0.11,1.63-0.66,3.1-1.67,4.43c-0.79,1.11-1.88,2.06-3.29,2.85
			c-1.17,0.65-2.34,1.11-3.54,1.38C343.02,208.3,341.98,208.43,341.08,208.43z"/>
	</g>
</g>
</svg>
